<svg width="24" height="16" viewBox="0 0 24 16" fill="none" xmlns="http://www.w3.org/2000/svg">
<path d="M23.9996 0H-0.000366211V16H23.9996V0Z" fill="white"/>
<path d="M13.4996 0H10.4996V6.4999H-0.000366211V9.49987H10.4996V15.9998H13.4996V9.49987H23.9996V6.4999H13.4996V0Z" fill="#D80027"/>
<path d="M18.4591 10.7819L24 13.8604V10.7819H18.4591Z" fill="#0052B4"/>
<path d="M14.6086 10.782L23.9992 15.9994V14.524L17.2641 10.782H14.6086Z" fill="#0052B4"/>
<path d="M21.498 15.9993L14.6088 12.1713V15.9993H21.498Z" fill="#0052B4"/>
<path d="M14.6086 10.782L23.9992 15.9994V14.524L17.2641 10.782H14.6086Z" fill="white"/>
<path d="M14.6086 10.782L23.9992 15.9994V14.524L17.2641 10.782H14.6086Z" fill="#D80027"/>
<path d="M4.23403 10.7824L-0.000366211 13.135V10.7824H4.23403Z" fill="#0052B4"/>
<path d="M9.38991 11.4455V15.9994H1.19415L9.38991 11.4455Z" fill="#0052B4"/>
<path d="M6.7347 10.782L-0.000366211 14.524V15.9994L9.39019 10.782H6.7347Z" fill="#D80027"/>
<path d="M5.54051 5.2172L-0.000366211 2.13867V5.2172H5.54051Z" fill="#0052B4"/>
<path d="M9.39019 5.21732L-0.000366211 0V1.47533L6.7347 5.21732H9.39019Z" fill="#0052B4"/>
<path d="M2.50079 0L9.39002 3.82796V0H2.50079Z" fill="#0052B4"/>
<path d="M9.39019 5.21732L-0.000366211 0V1.47533L6.7347 5.21732H9.39019Z" fill="white"/>
<path d="M9.39019 5.21732L-0.000366211 0V1.47533L6.7347 5.21732H9.39019Z" fill="#D80027"/>
<path d="M19.7654 5.21787L23.9998 2.86523V5.21787H19.7654Z" fill="#0052B4"/>
<path d="M14.6086 4.55389V0H22.8044L14.6086 4.55389Z" fill="#0052B4"/>
<path d="M17.2641 5.21732L23.9992 1.47533V0L14.6086 5.21732H17.2641Z" fill="#D80027"/>
</svg>
